<svg xmlns="http://www.w3.org/2000/svg" viewBox="0 0 40 40">
  <defs>
    <linearGradient id="g" x1="3" y1="3" x2="37" y2="37" gradientUnits="userSpaceOnUse">
      <stop offset="0%" stop-color="#0E7C7B"/>
      <stop offset="100%" stop-color="#0E7C7B"/>
    </linearGradient>
  </defs>
  <!-- Rounded square bg -->
  <rect x="1" y="1" width="38" height="38" rx="9" fill="url(#g)" opacity="0.12"/>
  <rect x="1" y="1" width="38" height="38" rx="9" fill="none" stroke="url(#g)" stroke-width="1"/>
  <!-- API: curly braces + mark -->
  <path d="M14 11 C11 11 10 13 10 15 L10 18 C10 20 8 21 8 21 C8 21 10 22 10 24 L10 27 C10 29 11 29 14 29"
        stroke="url(#g)" stroke-width="1.8" stroke-linecap="round" stroke-linejoin="round" fill="none"/>
  <path d="M26 11 C29 11 30 13 30 15 L30 18 C30 20 32 21 32 21 C32 21 30 22 30 24 L30 27 C30 29 29 29 26 29"
        stroke="url(#g)" stroke-width="1.8" stroke-linecap="round" stroke-linejoin="round" fill="none"/>
  <line x1="21" y1="14" x2="19" y2="28" stroke="url(#g)" stroke-width="1.8" stroke-linecap="round" opacity="0.6"/>
  <circle cx="20" cy="21" r="2" fill="url(#g)" opacity="0.5"/>
</svg>
