<svg xmlns="http://www.w3.org/2000/svg" viewBox="0 0 100 100" fill="none" shape-rendering="geometricPrecision">
  <defs>
    <linearGradient id="bg" x1="10" y1="10" x2="90" y2="90" gradientUnits="userSpaceOnUse">
      <stop offset="0%" stop-color="#0d9488"/>
      <stop offset="100%" stop-color="#065f46"/>
    </linearGradient>
  </defs>
  <!-- Rounded square background -->
  <rect x="6" y="6" width="88" height="88" rx="22" fill="url(#bg)"/>
  <!-- Curly braces { } -->
  <path d="M34 30 C34 30 28 30 28 38 L28 45 C28 49 24 50 24 50 C24 50 28 51 28 55 L28 62 C28 70 34 70 34 70"
        stroke="white" stroke-width="4" stroke-linecap="round" stroke-linejoin="round" fill="none" opacity="0.9"/>
  <path d="M66 30 C66 30 72 30 72 38 L72 45 C72 49 76 50 76 50 C76 50 72 51 72 55 L72 62 C72 70 66 70 66 70"
        stroke="white" stroke-width="4" stroke-linecap="round" stroke-linejoin="round" fill="none" opacity="0.9"/>
  <!-- Slash / -->
  <line x1="54" y1="36" x2="46" y2="64" stroke="white" stroke-width="3.5" stroke-linecap="round" opacity="0.7"/>
  <!-- Dot accents -->
  <circle cx="42" cy="50" r="2.5" fill="#6ee7b7" opacity="0.8"/>
  <circle cx="58" cy="50" r="2.5" fill="#6ee7b7" opacity="0.8"/>
</svg>
